/* XPM */
static char *result[] = {
/* columns rows colors chars-per-pixel */
"65 65 58 1 ",
"  c black",
". c #00001C",
"X c #00002C",
"o c #000034",
"O c #202020",
"+ c #2C2C2C",
"@ c gray22",
"# c #543C1C",
"$ c #5C4020",
"% c #6C4824",
"& c #000040",
"* c #00004C",
"= c #000058",
"- c #000064",
"; c #000070",
": c #00007C",
"> c #484848",
", c gray33",
"< c #646464",
"1 c gray44",
"2 c #7C7C7C",
"3 c #9C4C00",
"4 c #80502C",
"5 c #885830",
"6 c #905C34",
"7 c #9C6038",
"8 c #A0643C",
"9 c #B47044",
"0 c #BC7848",
"q c #C87C4C",
"w c #B4AC00",
"e c #CCC400",
"r c #FCF400",
"t c #D08050",
"y c #DC8854",
"u c #E88C58",
"i c #F0945C",
"p c #FC9C60",
"a c #FCA470",
"s c #000088",
"d c #000098",
"f c #0000A4",
"g c #0000B0",
"h c #0000BC",
"j c #0000C8",
"k c #0000D4",
"l c #0000E0",
"z c #0000EC",
"x c #0000FC",
"c c gray55",
"v c #989898",
"b c gray66",
"n c #B4B4B4",
"m c #FCB080",
"M c #FCB890",
"N c #FCBC9C",
"B c #FCC4A4",
"V c None",
/* pixels */
"VVVVVVVVVVVVVVVVVVVVVVVVVVVVVVVVVVVVVVVVVVVVVVVVVVVVVVVVVVVVVVVVV",
"VVVVVVVVVVVVVVVVVVVVVVVVVVVVVVVVVVVVVVVVVVVVVVVVVVVVVVVVVVVVVVVVV",
"VVVVVVVVVVVVVVVVVVVVVVVVVVVVVVVVVVVVVVVVVVVVVVVVVVVVVVVVVVVVVVVVV",
"VVVVVVVVVVVVVVVVVVVVVVVVVVVVVVVVVVVVVVVVVVVVVVVVVVVVVVVVVVVVVVVVV",
"VVVVVVVVVVVVVVVVVVVVVVVVVVVVVVVVVVVVVVVVVVVVVVVVVVVVVVVVVVVVVVVVV",
"VVVVVVVVVVVVVVVVVVVVVVVVVVVVVVVVVVVVVVVVVVVVVVVVVVVVVVVVVVVVVVVVV",
"VVVVVVVVVVVVVVVVVVVVVVVVVVVVVVVVVVVVVVVVVVVVVVVVVVVVVVVVVVVVVVVVV",
"VVVVVVVVVVVVVVVVVVVVVVVVVVVVVVVVVVVVVVVVVVVVVVVVVVVVVVVVVVVVVVVVV",
"VVVVVVVVVVVVVVVVVVVVVVVVVVVVVVVVffxVVVVVVVVVVVVVVVVVVVVVVVVVVVVVV",
"VVVVVVVVVVVVVVVVVVVVVVVVVVVVVVfffx  VVVVVVVVVVVVVVVVVVVVVVVVVVVVV",
"VVVVVVVVVVVVVVVVVVVVVVVVVVVVffffl    VVVVVVVVVVVVVVVVVVVVVVVVVVVV",
"VVVVVVVVVVVVVVVVVVVVVVVVVVVlllll      VVVVVVVVVVVVVVVVVVVVVVVVVVV",
"VVVVVVVVVVVVVVVVVVVVVVVVVVV;;;;;      VVVVVVVVVVVVVVVVVVVVVVVVVVV",
"VVVVVVVVVVVVVVVVVVVVVVVVVVV;;;;;    3VVVVVVVVVVVVVVVVVVVVVVVVVVVV",
"VVVVVVVVVVVVVVVVVVVVVVVVVVV9rqhqi7hqe5VVVVVVVVVVVVVVVVVVVVVVVVVVV",
"VVVVVVVVVVVVVVVVVVVVVVVVVVV4rMBmt5NMw%VVVVVVVVVVVVVVVVVVVVVVVVVVV",
"VVVVVVVVVVVVVVVVVVVVVVVVVVV9pmmaaaaat5VVVVVVVVVVVVVVVVVVVVVVVVVVV",
"VVVVVVVVVVVVVVVVVVVVVVVVVVVVpua000a9tVVVVVVVVVVVVVVVVVVVVVVVVVVVV",
"VVVVVVVVVVVVVVVVVVVVVVVVVVVVpuaaaaa9tVVVVVVVVVVVVVVVVVVVVVVVVVVVV",
"VVVVVVVVVVVVVVVVVVVVVVVVVVVVpaaaqauy4VVVVVVVVVVVVVVVVVVVVVVVVVVVV",
"VVVVVVVVVVVVVVVVVVVVVVVVVVV++99886644 VVVVVVVVVVVVVVVVVVVVVVVVVVV",
"VVVVVVVVVVVVVVVVVVVVVVVVVVV++qqqq644  VVVVVVVVVVVVVVVVVVVVVVVVVVV",
"VVVVVVVVVVVVVVVVVVVVVV;gOOO+bOqqi44 ,    *VVVVVVVVVVVVVVVVVVVVVVV",
"VVVVVVVVVVVVVVVVVVVVVgggOOO= c  4  , -----**VVVVVVVVVVVVVVVVVVVVV",
"VVVVVVVVVVVVVVVVVVVVgglgOOOg: *   * ;fffff;=*VVVVVVVVVVVVVVVVVVVV",
"VVVVVVVVVVVVVVVVVVVggg-dOOO&::::*::sssssss;*&*VVVVVVVVVVVVVVVVVVV",
"VVVVVVVVVVVVVVVVVVgggs;-dOOO&:::*::=====&s=&o&VVVVVVVVVVVVVVVVVVV",
"VVVVVVVVVVVVVVVVVVggg:;&dOOOO&::*::oddddo=*.Xo*VVVVVVVVVVVVVVVVVV",
"VVVVVVVVVVVVVVVVVgggs;= &&OO  &=o==ooooooX...XoVVVVVVVVVVVVVVVVVV",
"VVVVVVVVVVVVVVVVVgss;=* &:.    .ooo ====XX...Xo*VVVVVVVVVVVVVVVVV",
"VVVVVVVVVVVVVVVVggg;*o  *-&     ...*XXXXX..XXXXoVVVVVVVVVVVVVVVVV",
"VVVVVVVVVVVVVVVVgg;gg:*  ==.  <<<12,.......oo1XoVVVVVVVVVVVVVVVVV",
"VVVVVVVVVVVVVVVVggglgggccc22221111111222ccvvbOooVVVVVVVVVVVVVVVVV",
"VVVVVVVVVVVVVVVVV*k-:ggc,,,,,>>>>>>>>>>>>>,,,.ooVVVVVVVVVVVVVVVVV",
"VVVVVVVVVVVVVVVVV*sozjn ,,,>>@OOOOOOO       ,...VVVVVVVVVVVVVVVVV",
"VVVVVVVVVVVVVVVVVV*ojc::9   @..>>>+....%%%%% ,.VVVVVVVVVVVVVVVVVV",
"VVVVVVVVVVVVVVVVVVV*oc=8ppu6$..,>,+....50y7% ,VVVVVVVVVVVVVVVVVVV",
"VVVVVVVVVVVVVVVVVVVV*,*ypy8#   ,,,+    50y7% VVVVVVVVVVVVVVVVVVVV",
"VVVVVVVVVVVVVVVVVVVVVV*ypp8#   ,,,+    588%% VVVVVVVVVVVVVVVVVVVV",
"VVVVVVVVVVVVVVVVVVVVVVVj88%#                VVVVVVVVVVVVVVVVVVVVV",
"VVVVVVVVVVVVVVVVVVVVVVVjfs--&XXXXXXXXXX...VVVVVVVVVVVVVVVVVVVVVVV",
"VVVVVVVVVVVVVVVVVVVVVVVV;;*&.............VVVVVVVVVVVVVVVVVVVVVVVV",
"VVVVVVVVVVVVVVVVVVVVVVVVh::*ooX...o***oo.VVVVVVVVVVVVVVVVVVVVVVVV",
"VVVVVVVVVVVVVVVVVVVVVVVVh::*ooX..o*---*ooVVVVVVVVVVVVVVVVVVVVVVVV",
"VVVVVVVVVVVVVVVVVVVVVVVVh::*ooX..*---s-*oVVVVVVVVVVVVVVVVVVVVVVVV",
"VVVVVVVVVVVVVVVVVVVVVVVVh::*ooX..*---s-*oVVVVVVVVVVVVVVVVVVVVVVVV",
"VVVVVVVVVVVVVVVVVVVVVVVVh::*ooX..*---s-*oVVVVVVVVVVVVVVVVVVVVVVVV",
"VVVVVVVVVVVVVVVVVVVVVVVVhs:*ooX..*-;ds**oVVVVVVVVVVVVVVVVVVVVVVVV",
"VVVVVVVVVVVVVVVVVVVVVVVVhf:*&oX..*---s**oVVVVVVVVVVVVVVVVVVVVVVVV",
"VVVVVVVVVVVVVVVVVVVVVVVVhs:*ooX..*&;d;o**VVVVVVVVVVVVVVVVVVVVVVVV",
"VVVVVVVVVVVVVVVVVVVVVVVVhd;*ooX..o:--s*ooVVVVVVVVVVVVVVVVVVVVVVVV",
"VVVVVVVVVVVVVVVVVVVVVVVhjlf-**oX.oossss*o VVVVVVVVVVVVVVVVVVVVVVV",
"VVVVVVVVVVVVVVVVVVVVVVVhf:;*ooX..o*--foo* VVVVVVVVVVVVVVVVVVVVVVV",
"VVVVVVVVVVVVVVVVVVVVVVVh::**oX...o*--*ooo VVVVVVVVVVVVVVVVVVVVVVV",
"VVVVVVVVVVVVVVVVVVVVVVVV--**oX..V &ooooo  VVVVVVVVVVVVVVVVVVVVVVV",
"VVVVVVVVVVVVVVVVVVVVVVVV        V        VVVVVVVVVVVVVVVVVVVVVVVV",
"VVVVVVVVVVVVVVVVVVVVVVVV X&     V   &X   VVVVVVVVVVVVVVVVVVVVVVVV",
"VVVVVVVVVVVVVVVVVVVVVVVVV&&X    V  X&&  VVVVVVVVVVVVVVVVVVVVVVVVV",
"VVVVVVVVVVVVVVVVVVVVVVVVV X&   VVV &    VVVVVVVVVVVVVVVVVVVVVVVVV",
"VVVVVVVVVVVVVVVVVVVVVVVVV      VVV  XX  VVVVVVVVVVVVVVVVVVVVVVVVV",
"VVVVVVVVVVVVVVVVVVVVVVVV X&&X   V  X&X   VVVVVVVVVVVVVVVVVVVVVVVV",
"VVVVVVVVVVVVVVVVVVVVVVVVX&&&&   V X&&&X  VVVVVVVVVVVVVVVVVVVVVVVV",
"VVVVVVVVVVVVVVVVVVVVVVV &&&&X   V X&&&X   VVVVVVVVVVVVVVVVVVVVVVV",
"VVVVVVVVVVVVVVVVVVVVVVV XXX    VVV XXXX   VVVVVVVVVVVVVVVVVVVVVVV",
"VVVVVVVVVVVVVVVVVVVVVVVVVVVVVVVVVVVVVVVVVVVVVVVVVVVVVVVVVVVVVVVVV"
};
