/* XPM */
static char *result[] = {
/* columns rows colors chars-per-pixel */
"65 65 52 1 ",
"  c black",
". c #00001C",
"X c #00002C",
"o c #000034",
"O c #202020",
"+ c #2C2C2C",
"@ c gray22",
"# c #543C1C",
"$ c #6C4824",
"% c #000040",
"& c #00004C",
"* c #000058",
"= c #000064",
"- c #000070",
"; c #00007C",
": c #484848",
"> c gray33",
", c #646464",
"< c gray44",
"1 c #7C7C7C",
"2 c #80502C",
"3 c #885830",
"4 c #905C34",
"5 c #9C6038",
"6 c #A0643C",
"7 c #E46C00",
"8 c #A86840",
"9 c #B47044",
"0 c #BC7848",
"q c #C87C4C",
"w c #FC8820",
"e c #D08050",
"r c #DC8854",
"t c #E88C58",
"y c #F0945C",
"u c #FCA85C",
"i c #FC9C60",
"p c #FCA470",
"a c #FCFC54",
"s c #000088",
"d c #000098",
"f c #0000A4",
"g c #0000B0",
"h c #0000BC",
"j c #0000E0",
"k c #989898",
"l c gray66",
"z c #FCB080",
"x c #FCB890",
"c c #FCBC9C",
"v c #FCCCB0",
"b c None",
/* pixels */
"bbbbbbbbbbbbbbbbbbbbbbbbbbbbbbbbbbbbbbbbbbbbbbbbbbbbbbbbbbbbbbbbb",
"bbbbbbbbbbbbbbbbbbbbbbbbbbbbbbbbbbbbbbbbbbbbbbbbbbbbbbbbbbbbbbbbb",
"bbbbbbbbbbbbbbbbbbbbbbbbbbbbbbbbbbbbbbbbbbbbbbbbbbbbbbbbbbbbbbbbb",
"bbbbbbbbbbbbbbbbbbbbbbbbbbbbbbbbbbbbbbbbbbbbbbbbbbbbbbbbbbbbbbbbb",
"bbbbbbbbbbbbbbbbbbbbbbbbbbbbbbbbbbbbbbbbbbbbbbbbbbbbbbbbbbbbbbbbb",
"bbbbbbbbbbbbbbbbbbbbbbbbbbbbbbbbbbbbbbbbbbbbbbbbbbbbbbbbbbbbbbbbb",
"bbbbbbbbbbbbbbbbbbbbbbbbbbbbbbbbbbbbbbbbbbbbbbbbbbbbbbbbbbbbbbbbb",
"bbbbbbbbbbbbbbbbbbbbbbbbbbbbbbbbbbbbbbbbbbbbbbbbbbbbbbbbbbbbbbbbb",
"bbbbbbbbbbbbbbbbbbbbbbbbbbbbbbfjs%%bbbbbbbbbbbbbbbbbbbbbbbbbbbbbb",
"bbbbbbbbbbbbbbbbbbbbbbbbbbbbfjjs%%%%bbbbbbbbbbbbbbbbbbbbbbbbbbbbb",
"bbbbbbbbbbbbbbbbbbbbbbbbbbjjjs%%%%%%%bbbbbbbbbbbbbbbbbbbbbbbbbbbb",
"bbbbbbbbbbbbbbbbbbbbbbbbb;dd%%%%%%%%%bbbbbbbbbbbbbbbbbbbbbbbbbbbb",
"bbbbbbbbbbbbbbbbbbbbbbbbb;dd%%%%%%%%%bbbbbbbbbbbbbbbbbbbbbbbbbbbb",
"bbbbbbbbbbbbbbbbbbbbbbbbb;dd%%4wau772bbbbbbbbbbbbbbbbbbbbbbbbbbbb",
"bbbbbbbbbbbbbbbbbbbbbbbbbbhxrhzzap07#bbbbbbbbbbbbbbbbbbbbbbbbbbbb",
"bbbbbbbbbbbbbbbbbbbbbbbbbbczvvvcaep4#bbbbbbbbbbbbbbbbbbbbbbbbbbbb",
"bbbbbbbbbbbbbbbbbbbbbbbbbbypvvcppy0##bbbbbbbbbbbbbbbbbbbbbbbbbbbb",
"bbbbbbbbbbbbbbbbbbbbbbbbbb8etviqp93#bbbbbbbbbbbbbbbbbbbbbbbbbbbbb",
"bbbbbbbbbbbbbbbbbbbbbbbbbbyzzviqz52#bbbbbbbbbbbbbbbbbbbbbbbbbbbbb",
"bbbbbbbbbbbbbbbbbbbbbbbbbbpxvvczy$  bbbbbbbbbbbbbbbbbbbbbbbbbbbbb",
"bbbbbbbbbbbbbbbbbbbbbbbbbb  ee0     bbbbbbbbbbbbbbbbbbbbbbbbbbbbb",
"bbbbbbbbbbbbbbbbbbbbbbbbbb  zp :1   %%bbbbbbbbbbbbbbbbbbbbbbbbbbb",
"bbbbbbbbbbbbbbbbbbbbbbb*O+  z  l:  sss=%bbbbbbbbbbbbbbbbbbbbbbbbb",
"bbbbbbbbbbbbbbbbbbbbb**-++h   h  %sfhhss%%bbbbbbbbbbbbbbbbbbbbbbb",
"bbbbbbbbbbbbbbbbbbbbsssf++dh*hhffhhhgs--*=%bbbbbbbbbbbbbbbbbbbbbb",
"bbbbbbbbbbbbbbbbbbbbsffh&+-h*hffdsshd;sss=%bbbbbbbbbbbbbbbbbbbbbb",
"bbbbbbbbbbbbbbbbbbbbsffh&+&d*hfhhgsgdsfdss=bbbbbbbbbbbbbbbbbbbbbb",
"bbbbbbbbbbbbbbbbbbbssf=hf++-*hfssssgdffdds=%bbbbbbbbbbbbbbbbbbbbb",
"bbbbbbbbbbbbbbbbbbbsff=fh*+&*hdhgfsd-fffds*%bbbbbbbbbbbbbbbbbbbbb",
"bbbbbbbbbbbbbbbbbbb;fs%fhh&++&sgff;d-sfffd*%bbbbbbbbbbbbbbbbbbbbb",
"bbbbbbbbbbbbbbbbbbb;fs%;ffd&++&ss;;d*-sffd-*%bbbbbbbbbbbbbbbbbbbb",
"bbbbbbbbbbbbbbbbbbbffs%.fffd&++&h,;*%%---f**%bbbbbbbbbbbbbbbbbbbb",
"bbbbbbbbbbbbbbbbbbbffkk1111<<<,,,++%.-dff-d%%bbbbbbbbbbbbbbbbbbbb",
"bbbbbbbbbbbbbbbbbbb;k,::::::::@@@+..-dffdd*%%bbbbbbbbbbbbbbbbbbbb",
"bbbbbbbbbbbbbbbbbbb;,OOOOOOOOOOOOOO-dffd;;;%.bbbbbbbbbbbbbbbbbbbb",
"bbbbbbbbbbbbbbbbbbbxxxx>>+@@@@eee5$d>d;;**%.bbbbbbbbbbbbbbbbbbbbb",
"bbbbbbbbbbbbbbbbbbbxxqq>>+%%%%xxy55d;>**%..bbbbbbbbbbbbbbbbbbbbbb",
"bbbbbbbbbbbbbbbbbbbxxqq>>+%%%%xxy55**>%..bbbbbbbbbbbbbbbbbbbbbbbb",
"bbbbbbbbbbbbbbbbbbbxxqq>>+%***ee6$$*%XX..bbbbbbbbbbbbbbbbbbbbbbbb",
"bbbbbbbbbbbbbbbbbbbb  ;%=%%*fff;&XXXXXX..bbbbbbbbbbbbbbbbbbbbbbbb",
"bbbbbbbbbbbbbbbbbbbbbbb%oooooooooXXXXXXX.bbbbbbbbbbbbbbbbbbbbbbbb",
"bbbbbbbbbbbbbbbbbbbbbbb-&&&&&o&&;;;-*%X.bbbbbbbbbbbbbbbbbbbbbbbbb",
"bbbbbbbbbbbbbbbbbbbbbbb-ds-*%oX;ds;-*%X.bbbbbbbbbbbbbbbbbbbbbbbbb",
"bbbbbbbbbbbbbbbbbbbbbbb-ds-*%oX;ds;-*%X.bbbbbbbbbbbbbbbbbbbbbbbbb",
"bbbbbbbbbbbbbbbbbbbbbbb-fs-*%o&fds;-*%X.bbbbbbbbbbbbbbbbbbbbbbbbb",
"bbbbbbbbbbbbbbbbbbbbbbb-fs-&%o&fds;-*%X.bbbbbbbbbbbbbbbbbbbbbbbbb",
"bbbbbbbbbbbbbbbbbbbbbbb-fs-&%o&fds;-*%X.bbbbbbbbbbbbbbbbbbbbbbbbb",
"bbbbbbbbbbbbbbbbbbbbbbb-fs-&%o&fds;-*%X.bbbbbbbbbbbbbbbbbbbbbbbbb",
"bbbbbbbbbbbbbbbbbbbbbbb-fs-&&o&fds;-*%X.bbbbbbbbbbbbbbbbbbbbbbbbb",
"bbbbbbbbbbbbbbbbbbbbbbbbss==&oXsss;-*%Xbbbbbbbbbbbbbbbbbbbbbbbbbb",
"bbbbbbbbbbbbbbbbbbbbbbb*h;;s&%Xhffss*%%.bbbbbbbbbbbbbbbbbbbbbbbbb",
"bbbbbbbbbbbbbbbbbbbbbbbb;***%%o;f===*%%.bbbbbbbbbbbbbbbbbbbbbbbbb",
"bbbbbbbbbbbbbbbbbbbbbbbbf;;;oo ;f;;;;&Xbbbbbbbbbbbbbbbbbbbbbbbbbb",
"bbbbbbbbbbbbbbbbbbbbbbbb;;;;%%o=;;;;;&%.bbbbbbbbbbbbbbbbbbbbbbbbb",
"bbbbbbbbbbbbbbbbbbbbbbbb %%%%oo &%%%XXX.bbbbbbbbbbbbbbbbbbbbbbbbb",
"bbbbbbbbbbbbbbbbbbbbbbbbb               bbbbbbbbbbbbbbbbbbbbbbbbb",
"bbbbbbbbbbbbbbbbbbbbbbbbb%%%    %%X     bbbbbbbbbbbbbbbbbbbbbbbbb",
"bbbbbbbbbbbbbbbbbbbbbbbbb%%%    XXX     bbbbbbbbbbbbbbbbbbbbbbbbb",
"bbbbbbbbbbbbbbbbbbbbbbbbbXXXX      X%   bbbbbbbbbbbbbbbbbbbbbbbbb",
"bbbbbbbbbbbbbbbbbbbbbbbbb        %%%X  bbbbbbbbbbbbbbbbbbbbbbbbbb",
"bbbbbbbbbbbbbbbbbbbbbbbbbb%%X          bbbbbbbbbbbbbbbbbbbbbbbbbb",
"bbbbbbbbbbbbbbbbbbbbbbbb%%%XX   %%%X    bbbbbbbbbbbbbbbbbbbbbbbbb",
"bbbbbbbbbbbbbbbbbbbbbbb%%%X    %%%XX    bbbbbbbbbbbbbbbbbbbbbbbbb",
"bbbbbbbbbbbbbbbbbbbbbb%%XX    %%%XX     bbbbbbbbbbbbbbbbbbbbbbbbb",
"bbbbbbbbbbbbbbbbbbbbbbbbbbbbbbbbbbbbbbbbbbbbbbbbbbbbbbbbbbbbbbbbb"
};
