/* XPM */
static char *result[] = {
/* columns rows colors chars-per-pixel */
"65 65 47 1 ",
"  c black",
". c #00001C",
"X c #00002C",
"o c #000034",
"O c #202020",
"+ c #2C2C2C",
"@ c gray22",
"# c #000040",
"$ c #00004C",
"% c #000058",
"& c #000064",
"* c #000070",
"= c #00007C",
"- c #484848",
"; c gray33",
": c #7C7C7C",
"> c #9C4C00",
", c #885830",
"< c #905C34",
"1 c #9C6038",
"2 c #E46C00",
"3 c #B47044",
"4 c #BC7848",
"5 c #C87C4C",
"6 c #FC8820",
"7 c #CCC400",
"8 c #D08050",
"9 c #DC8854",
"0 c #E88C58",
"q c #F0945C",
"w c #FCA85C",
"e c #FC9C60",
"r c #FCA470",
"t c #000088",
"y c #000098",
"u c #0000A4",
"i c #0000B0",
"p c #0000BC",
"a c #0000C8",
"s c #0000D4",
"d c #0000E0",
"f c #4040FC",
"g c #FCB080",
"h c #FCB890",
"j c #FCBC9C",
"k c #FCCCB0",
"l c None",
/* pixels */
"lllllllllllllllllllllllllllllllllllllllllllllllllllllllllllllllll",
"lllllllllllllllllllllllllllllllllllllllllllllllllllllllllllllllll",
"lllllllllllllllllllllllllllllllllllllllllllllllllllllllllllllllll",
"lllllllllllllllllllllllllllllllllllllllllllllllllllllllllllllllll",
"lllllllllllllllllllllllllllllllllllllllllllllllllllllllllllllllll",
"lllllllllllllllllllllllllllllllllllllllllllllllllllllllllllllllll",
"lllllllllllllllllllllllllllllllllllllllllllllllllllllllllllllllll",
"lllllllllllllllllllllllllllllllllllllllllllllllllllllllllllllllll",
"lllllllllllllllllllllllllllllllllllllllllllllllllllllllllllllllll",
"llllllllllllllllllllllllllllspu&$llllllllllllllllllllllllllllllll",
"lllllllllllllllllllllllllllspput&$$llllllllllllllllllllllllllllll",
"llllllllllllllllllllllllllssputttt&$$llllllllllllllllllllllllllll",
"llllllllllllllllllllllllllspputttttt&$lllllllllllllllllllllllllll",
"llllllllllllllllllllllllllspuutttttt##lllllllllllllllllllllllllll",
"llllllllllllllllllllllllll7w6622><tt##lllllllllllllllllllllllllll",
"llllllllllllllllllllllllll7w66r259p95llllllllllllllllllllllllllll",
"llllllllllllllllllllllllll7w6r82500055lllllllllllllllllllllllllll",
"lllllllllllllllllllllllllll7w4re59008llllllllllllllllllllllllllll",
"lllllllllllllllllllllllllllgkkrj38041llllllllllllllllllllllllllll",
"lllllllllllllllllllllllllllgkkrh38088llllllllllllllllllllllllllll",
"lllllllllllllllllllllllllll@@@3qh0008llllllllllllllllllllllllllll",
"lllllllllllllllllllllllllll@@+++  &llllllllllllllllllllllllllllll",
"lllllllllllllllllllllllllll@@+++OOO lllllllllllllllllllllllllllll",
"llllllllllllllllllllllllll  =uuu=+ :-llllllllllllllllllllllllllll",
"lllllllllllllllllllllllll ==uaaaaa+  -lllllllllllllllllllllllllll",
"lllllllllllllllllllllllllyyuassdiyi++ lllllllllllllllllllllllllll",
"llllllllllllllllllllllll=yiisaady=t$$ lllllllllllllllllllllllllll",
"llllllllllllllllllllllll=yiasaaiy=%##o llllllllllllllllllllllllll",
"llllllllllllllllllllllll=yaaaaay==###o llllllllllllllllllllllllll",
"llllllllllllllllllllllll=yaaaaiy==$##o llllllllllllllllllllllllll",
"llllllllllllllllllllllll=iaaasi&=$$##o llllllllllllllllllllllllll",
"lllllllllllllllllllllllllaaasiiyy=$#oX ::llllllllllllllllllllllll",
"lllllllllllllllllllllllllasaaaattyy=XX:;;;lllllllllllllllllllllll",
"lllllllllllllllllllllllllsaaaa=$tttt:=;;;;lllllllllllllllllllllll",
"llllllllllllllllllllllllllia=$$****t;tggg,,llllllllllllllllllllll",
"llllllllllllllllllllllllll    $$$$**;*g99,lllllllllllllllllllllll",
"lllllllllllllllllllllllll*uy**###.$;$,555,lllllllllllllllllllllll",
"lllllllllllllllllllllllll*uuy=*$##ooX,<<<,lllllllllllllllllllllll",
"lllllllllllllllllllllllll*uuyt*$$#ooX..llllllllllllllllllllllllll",
"lllllllllllllllllllllllll*uuyt*$$#ooX..llllllllllllllllllllllllll",
"lllllllllllllllllllllllll*uuyt*$$#ooX..llllllllllllllllllllllllll",
"llllllllllllllllllllllllll&===&##oo....llllllllllllllllllllllllll",
"lllllllllllllllllllllllllltia=====##X..llllllllllllllllllllllllll",
"lllllllllllllllllllllllllltiauy=&$##X.lllllllllllllllllllllllllll",
"lllllllllllllllllllllllllltiauy=&$##o.lllllllllllllllllllllllllll",
"lllllllllllllllllllllllllltpiiy&&$##ollllllllllllllllllllllllllll",
"lllllllllllllllllllllllllltaiit=*$##Xllllllllllllllllllllllllllll",
"lllllllllllllllllllllllllltaiit=*$#oXllllllllllllllllllllllllllll",
"lllllllllllllllllllllllllll=ppt*&##o.llllllllllllllllllllllllllll",
"lllllllllllllllllllllllllllu&&*##oo.lllllllllllllllllllllllllllll",
"llllllllllllllllllllllllllluttt&##oX.llllllllllllllllllllllllllll",
"llllllllllllllllllllllllllufuut&##oX.llllllllllllllllllllllllllll",
"lllllllllllllllllllllllllltu==&&##oX.llllllllllllllllllllllllllll",
"lllllllllllllllllllllllllltt&####oX.lllllllllllllllllllllllllllll",
"lllllllllllllllllllllllllll#oX.     lllllllllllllllllllllllllllll",
"lllllllllllllllllllllllllll#oX.     lllllllllllllllllllllllllllll",
"lllllllllllllllllllllllllll#oX.     lllllllllllllllllllllllllllll",
"lllllllllllllllllllllllllll##X.    llllllllllllllllllllllllllllll",
"lllllllllllllllllllllllllllX##o    llllllllllllllllllllllllllllll",
"llllllllllllllllllllllllllll....  lllllllllllllllllllllllllllllll",
"llllllllllllllllllllllllllll X.     lllllllllllllllllllllllllllll",
"lllllllllllllllllllllllllll#oX.        llllllllllllllllllllllllll",
"lllllllllllllllllllllllllll#oX.           lllllllllllllllllllllll",
"lllllllllllllllllllllllllll#oX.           lllllllllllllllllllllll",
"lllllllllllllllllllllllllllllllllllllllllllllllllllllllllllllllll"
};
