/* XPM */
static char *result[] = {
/* columns rows colors chars-per-pixel */
"65 65 36 1 ",
"  c black",
". c #00001C",
"X c gray11",
"o c #00002C",
"O c #000034",
"+ c #202020",
"@ c #2C2C2C",
"# c #6C4824",
"$ c #000040",
"% c #00004C",
"& c #000058",
"* c #000064",
"= c #000070",
"- c #00007C",
"; c #9C4C00",
": c #B45400",
"> c #80502C",
", c #885830",
"< c #9C6038",
"1 c #CC6000",
"2 c #E46C00",
"3 c #A86840",
"4 c #B47044",
"5 c #BC7848",
"6 c #FC8820",
"7 c #FCF400",
"8 c #FCA85C",
"9 c #FC9C60",
"0 c #000088",
"q c #000098",
"w c #0000A4",
"e c #0000B0",
"r c #0000BC",
"t c #0000D4",
"y c #FCCCB0",
"u c None",
/* pixels */
"uuuuuuuuuuuuuuuuuuuuuuuuuuuuuuuuuuuuuuuuuuuuuuuuuuuuuuuuuuuuuuuuu",
"uuuuuuuuuuuuuuuuuuuuuuuuuuuuuuuuuuuuuuuuuuuuuuuuuuuuuuuuuuuuuuuuu",
"uuuuuuuuuuuuuuuuuuuuuuuuuuuuuuuuuuuuuuuuuuuuuuuuuuuuuuuuuuuuuuuuu",
"uuuuuuuuuuuuuuuuuuuuuuuuuuuuuuuuuuuuuuuuuuuuuuuuuuuuuuuuuuuuuuuuu",
"uuuuuuuuuuuuuuuuuuuuuuuuuuuuuuuuuuuuuuuuuuuuuuuuuuuuuuuuuuuuuuuuu",
"uuuuuuuuuuuuuuuuuuuuuuuuuuuuuuuuuuuuuuuuuuuuuuuuuuuuuuuuuuuuuuuuu",
"uuuuuuuuuuuuuuuuuuuuuuuuuuuuuuuuuuuuuuuuuuuuuuuuuuuuuuuuuuuuuuuuu",
"uuuuuuuuuuuuuuuuuuuuuuuuuuuuuuuuuuuuuuuuuuuuuuuuuuuuuuuuuuuuuuuuu",
"uuuuuuuuuuuuuuuuuuuuuuuuuuuuuuwww%%uuuuuuuuuuuuuuuuuuuuuuuuuuuuuu",
"uuuuuuuuuuuuuuuuuuuuuuuuuuuuww0-%    uuuuuuuuuuuuuuuuuuuuuuuuuuuu",
"uuuuuuuuuuuuuuuuuuuuuuuuuuuw0-==$     uuuuuuuuuuuuuuuuuuuuuuuuuuu",
"uuuuuuuuuuuuuuuuuuuuuuuuuuu0--==$     uuuuuuuuuuuuuuuuuuuuuuuuuuu",
"uuuuuuuuuuuuuuuuuuuuuuuuuuu0--==%     uuuuuuuuuuuuuuuuuuuuuuuuuuu",
"uuuuuuuuuuuuuuuuuuuuuuuuuuu-86621:;##uuuuuuuuuuuuuuuuuuuuuuuuuuuu",
"uuuuuuuuuuuuuuuuuuuuuuuuuuu4782611;##,uuuuuuuuuuuuuuuuuuuuuuuuuuu",
"uuuuuuuuuuuuuuuuuuuuuuuuuuu>86621:;###uuuuuuuuuuuuuuuuuuuuuuuuuuu",
"uuuuuuuuuuuuuuuuuuuuuuuuuuu4782611;##,uuuuuuuuuuuuuuuuuuuuuuuuuuu",
"uuuuuuuuuuuuuuuuuuuuuuuuuuuuy8621:;#>uuuuuuuuuuuuuuuuuuuuuuuuuuuu",
"uuuuuuuuuuuuuuuuuuuuuuuuuuuuyy9543<<>uuuuuuuuuuuuuuuuuuuuuuuuuuuu",
"uuuuuuuuuuuuuuuuuuuuuuuuuuuu         uuuuuuuuuuuuuuuuuuuuuuuuuuuu",
"uuuuuuuuuuuuuuuuuuuuuuuuuuu@@         uuuuuuuuuuuuuuuuuuuuuuuuuuu",
"uuuuuuuuuuuuuuuuuuuuuuuuuuwwwwww---&&&   uuuuuuuuuuuuuuuuuuuuuuuu",
"uuuuuuuuuuuuuuuuuuuuuuuwwwwwwqq0000000   =*uuuuuuuuuuuuuuuuuuuuuu",
"uuuuuuuuuuuuuuuuuuuuuwwwww000000*0000$  ==-*uuuuuuuuuuuuuuuuuuuuu",
"uuuuuuuuuuuuuuuuuuuuwwew0-------*---$   ====*uuuuuuuuuuuuuuuuuuuu",
"uuuuuuuuuuuuuuuuuuuwwww--*-----=%*-$   $==--=uuuuuuuuuuuuuuuuuuuu",
"uuuuuuuuuuuuuuuuuuuwwew0%*=====*%%$   $*$-000*uuuuuuuuuuuuuuuuuuu",
"uuuuuuuuuuuuuuuuuuwwewq0%$*****$%$   O&$ &0qq==uuuuuuuuuuuuuuuuuu",
"uuuuuuuuuuuuuuuuuuweeq-= $&***&$$   O$$O &-0q0=uuuuuuuuuuuuuuuuuu",
"uuuuuuuuuuuuuuuuu0www-% $O$&&&$$   O$$$Oo&&0qq0=uuuuuuuuuuuuuuuuu",
"uuuuuuuuuuuuuuuuuwwww00% O$$$$$   O$$$O o&&qq00=uuuuuuuuuuuuuuuuu",
"uuuuuuuuuuuuuuuuu0wwq0-%  O$$o   .OOOoo .$&*===$uuuuuuuuuuuuuuuuu",
"uuuuuuuuuuuuuuuuuu0--**$  O..    ......  o$$**$uuuuuuuuuuuuuuuuuu",
"uuuuuuuuuuuuuuuuuuu%%%$o ++XXXX          ..O$ uuuuuuuuuuuuuuuuuuu",
"uuuuuuuuuuuuuuuuuuuu%$oo ++XXXX              uuuuuuuuuuuuuuuuuuuu",
"uuuuuuuuuuuuuuuuuuuuuoo $&***&&%%$$OOO.... uuuuuuuuuuuuuuuuuuuuuu",
"uuuuuuuuuuuuuuuuuuuuuuuu--qw00-=&*&&%$$Ooouuuuuuuuuuuuuuuuuuuuuuu",
"uuuuuuuuuuuuuuuuuuuuuuu---qw00-=&*&&%$$Ooouuuuuuuuuuuuuuuuuuuuuuu",
"uuuuuuuuuuuuuuuuuuuuuuu---qw00-=&*&&%$$Ooouuuuuuuuuuuuuuuuuuuuuuu",
"uuuuuuuuuuuuuuuuuuuuuuu---qw00-=$*&&%$$Ooouuuuuuuuuuuuuuuuuuuuuuu",
"uuuuuuuuuuuuuuuuuuuuuuu---qw00-=$*&&%$$Ooouuuuuuuuuuuuuuuuuuuuuuu",
"uuuuuuuuuuuuuuuuuuuuuuuu&&&&$$o........oouuuuuuuuuuuuuuuuuuuuuuuu",
"uuuuuuuuuuuuuuuuuuuuuuuu=-0==$O...O%%%$O$uuuuuuuuuuuuuuuuuuuuuuuu",
"uuuuuuuuuuuuuuuuuuuuuuuu-q0==$O..o%&=&$O$uuuuuuuuuuuuuuuuuuuuuuuu",
"uuuuuuuuuuuuuuuuuuuuuuuuqqw-=$O..o$*=*%O$uuuuuuuuuuuuuuuuuuuuuuuu",
"uuuuuuuuuuuuuuuuuuuuuuuuqeee=$o..o$-==%$$uuuuuuuuuuuuuuuuuuuuuuuu",
"uuuuuuuuuuuuuuuuuuuuuuuuqeeq$$o..o$-==%$$uuuuuuuuuuuuuuuuuuuuuuuu",
"uuuuuuuuuuuuuuuuuuuuuuuuqqe-=$o..o$-==%$$uuuuuuuuuuuuuuuuuuuuuuuu",
"uuuuuuuuuuuuuuuuuuuuuuuuetrr=%$.o$&0ww0*$uuuuuuuuuuuuuuuuuuuuuuuu",
"uuuuuuuuuuuuuuuuuuuuuuuutq-=$Oo..OO%$$OO$uuuuuuuuuuuuuuuuuuuuuuuu",
"uuuuuuuuuuuuuuuuuuuuuuuut0=$.....OO$$$$O$uuuuuuuuuuuuuuuuuuuuuuuu",
"uuuuuuuuuuuuuuuuuuuuuuuuwrr==$O..o$***$$$uuuuuuuuuuuuuuuuuuuuuuuu",
"uuuuuuuuuuuuuuuuuuuuuuuu&w=&$OO..o$$$$$$$uuuuuuuuuuuuuuuuuuuuuuuu",
"uuuuuuuuuuuuuuuuuuuuuuuuu&$$OO....o$$$$ uuuuuuuuuuuuuuuuuuuuuuuuu",
"uuuuuuuuuuuuuuuuuuuuuuuuu       u       uuuuuuuuuuuuuuuuuuuuuuuuu",
"uuuuuuuuuuuuuuuuuuuuuuuuu$      u       uuuuuuuuuuuuuuuuuuuuuuuuu",
"uuuuuuuuuuuuuuuuuuuuuuuuu$$     u       uuuuuuuuuuuuuuuuuuuuuuuuu",
"uuuuuuuuuuuuuuuuuuuuuuuuu$$     u       uuuuuuuuuuuuuuuuuuuuuuuuu",
"uuuuuuuuuuuuuuuuuuuuuuuuuu $    u      uuuuuuuuuuuuuuuuuuuuuuuuuu",
"uuuuuuuuuuuuuuuuuuuuuuuuuu     uuu     uuuuuuuuuuuuuuuuuuuuuuuuuu",
"uuuuuuuuuuuuuuuuuuuuuuuuu$$    uuu     $uuuuuuuuuuuuuuuuuuuuuuuuu",
"uuuuuuuuuuuuuuuuuuuuuuuu$$$     u       $uuuuuuuuuuuuuuuuuuuuuuuu",
"uuuuuuuuuuuuuuuuuuuuuuuu$$      u        uuuuuuuuuuuuuuuuuuuuuuuu",
"uuuuuuuuuuuuuuuuuuuuuuuu$      +u       uuuuuuuuuuuuuuuuuuuuuuuuu",
"uuuuuuuuuuuuuuuuuuuuuuuuuuuuuuuuuuuuuuuuuuuuuuuuuuuuuuuuuuuuuuuuu"
};
