/* XPM */
static char *result[] = {
/* columns rows colors chars-per-pixel */
"64 64 51 1 ",
"  c None",
". c gray66",
"X c #989898",
"o c #7C7C7C",
"O c gray44",
"+ c #646464",
"@ c gray33",
"# c #484848",
"$ c gray22",
"% c #2C2C2C",
"& c #D0D0D0",
"* c gray55",
"= c black",
"- c #543C1C",
"; c #B47044",
": c #80502C",
"> c #885830",
", c #FC2020",
"< c #C87C4C",
"1 c #9C6038",
"2 c #F0945C",
"3 c #D08050",
"4 c #E88C58",
"5 c #FCC4A4",
"6 c #B00000",
"7 c #FCB890",
"8 c #FCA470",
"9 c #A86840",
"0 c #980000",
"q c #6C4824",
"w c #5C4020",
"e c #403018",
"r c #905C34",
"t c #FCB080",
"y c #744C28",
"u c #FC9C60",
"i c #BC7848",
"p c #D40000",
"a c #A40000",
"s c #DC8854",
"d c #640000",
"f c #382C14",
"g c #A0643C",
"h c #483818",
"j c #00004C",
"k c #000064",
"l c #0000A4",
"z c #000040",
"x c #000088",
"c c #00007C",
"v c white",
/* pixels */
"                                                                ",
"                                                                ",
"                                                                ",
"                                                                ",
"                                                                ",
"                                                                ",
"                                                                ",
"                                                                ",
"                                                                ",
"                                                                ",
"                                                                ",
"                                                                ",
"                                                                ",
"                                                                ",
"                                                                ",
"                                                                ",
"                                                                ",
"                                                                ",
"                                 .X.oO+@@                       ",
"                                .XXO+###$@                      ",
"                               .XoO+@####%                      ",
"                               ..&..**o.*+                      ",
"                               .+$$$$=$$#$#                     ",
"                              .+$---=$;:>%%% ,                  ",
"                              X##:<<=12231%                     ",
"                                 44=:12<5     6                 ",
"                          42224$47889999960 6                   ",
"                       424;44444$$%%>9qqq 6                     ",
"                      4;;43>999we$r499>                         ",
"                     4t8899yyyy94e=r===r                        ",
"                     8t;9yyywwy94<===:=1r                       ",
"                     tuuyqqwyy>9ipa==:::pr                      ",
"                     u<   si;>9;;<d==awq:r                      ",
"                          4s;9;;;prd==wap:r                     ",
"                           4ss4;;;rd==wpaqq                     ",
"                           44s;;>;re==wqwwqq                    ",
"                           ><<<<<>ww== wwr<fq                   ",
"                            $$$$$==o@= wf;g<q                   ",
"                           $qrrrrrf#$=  fgu<q                   ",
"                           r44444igff=   g<g                    ",
"                          94uuu24igyf-                          ",
"                          4444444igyf-                          ",
"                         94;9>>>>>:yfw                          ",
"                         9;iiiiii1wff-                          ",
"                          iuuu433iy-f-                          ",
"                          4uu2443iyhf                           ",
"                          4uu2443;yhq                           ",
"                          iu2244ighwq                           ",
"                          i22224;ghqw                           ",
"                          ii4i<3g>h:ww                          ",
"                         iuu24;g>>w:ww                          ",
"                        iuu444;g>h>:ww                          ",
"                        i9999;g>>wwqww                          ",
"                        ijjjwyg>w>qww                           ",
"                         klzz=wwwwwww                           ",
"                        xllzz=w===ww                            ",
"                        llcz=======w                            ",
"                       xllkz========                            ",
"                       llxxkkk=====                             ",
"                      $$$$kk==k===                              ",
"                      $$$$$$$=====                              ",
"                       $$$$$$$======                            ",
"                          $$$$=======                           ",
"                              =======                           "
};
