/* XPM */
static char *result[] = {
/* columns rows colors chars-per-pixel */
"64 64 54 1 ",
"  c None",
". c #A80000",
"X c #FC2020",
"o c #B00000",
"O c #FC0000",
"+ c #580000",
"@ c #7C7C7C",
"# c gray33",
"$ c #646464",
"% c #EC0000",
"& c #7C0000",
"* c #989898",
"= c gray22",
"- c #FCA85C",
"; c #FC9840",
": c #CC6000",
"> c #880000",
", c #D0D0D0",
"< c gray55",
"1 c #484848",
"2 c black",
"3 c #202020",
"4 c #FCF400",
"5 c #B47044",
"6 c #744C28",
"7 c #9C6038",
"8 c #D08050",
"9 c gray44",
"0 c #B4B4B4",
"q c #F0945C",
"w c #BC7848",
"e c #FC5C5C",
"r c #905C34",
"t c #5C4020",
"y c #A86840",
"u c #80502C",
"i c #6C4824",
"p c #483818",
"a c #C87C4C",
"s c #A0643C",
"d c #A40000",
"f c #E88C58",
"g c #980000",
"h c #FCA470",
"j c #DC8854",
"k c #FC9C60",
"l c #0000A8",
"z c #0000B0",
"x c #885830",
"c c #543C1C",
"v c #000070",
"b c #00004C",
"n c #000040",
"m c white",
/* pixels */
"                                                                ",
"                                                                ",
"                                                                ",
"                                                                ",
"                                                                ",
"                                                                ",
"                                                                ",
"                                                                ",
"                                                                ",
"                                                                ",
"                                                                ",
"                                                                ",
"                                                                ",
"                                                                ",
"                                                                ",
"                                                                ",
"                                                                ",
"                                                          .     ",
"                                                                ",
"                                                                ",
"                                                     Xo O       ",
"                                                     o+         ",
"                                                        O       ",
"                                                    Oo          ",
"                            @@@## @@$                       %&  ",
"                           **@$$$@$==$      ----;:  >O      &   ",
"                          *,*@$<*12233     -444--;:>          X ",
"                          **@$<,122233    561116758           o ",
"                          **9$0222233  531117qqqqqqqqww         ",
"                          @39@@2223   3317qqqqqqqqwwqqqw        ",
"                           93332223  3w17qeeeqqqwwr6ty8q8       ",
"                           3012223 33w1========rwyrtuyy8qw      ",
"                           012223   w==rwwwwwru==t6t6ury88y     ",
"                           93333   5=wwqi5qqqqww33tp  uryyy     ",
"                                    wqqipiiiiiiq633p   uryyr    ",
"                                   wwii5ww5a885is62d    rrrr    ",
"                                   wi5fff55aff8wistp &  uuii    ",
"                                   w=fffausaffq8witp    ii55    ",
"                                    5qffw66sffffw6pp g   8h8    ",
"                                    jkkqw666wwywy6t&g     h8    ",
"                                    kkkwr66qkkqyy6t&&    h8     ",
"                                    kwwrr6lzlq5qx6c &           ",
"                                   qkkwr===lvbsx6tc             ",
"                                  qqkkw=====b226ccc             ",
"                                 qwwws6=====n22ccc              ",
"                                lzlv6666=====22c                ",
"                              ===lvbn2cc=====22                 ",
"                             ====vbn22cc =====2                 ",
"                             ====b2222    ====2                 ",
"                             ====2222     ====2                 ",
"                              ====22       ===                  ",
"                              ====22                            ",
"                              =====2                            ",
"                               ====2                            ",
"                                ===                             ",
"                                                                ",
"                                                                ",
"                                                                ",
"                                                                ",
"                                                                ",
"                                                                ",
"                                                                ",
"                                                                ",
"                                                                "
};
