/* XPM */
static char *result[] = {
/* columns rows colors chars-per-pixel */
"32 32 194 2 ",
"   c #483839",
".  c #6F2D26",
"X  c #742E22",
"o  c #7C3021",
"O  c #74483A",
"+  c #684338",
"@  c #7A7024",
"#  c #5A3A4B",
"$  c #723D44",
"%  c #574055",
"&  c #7E7C4E",
"*  c #604E65",
"=  c #6F657E",
"-  c #636566",
";  c #84331F",
":  c #8A361E",
">  c #8E381D",
",  c #92391C",
"<  c #B32F1F",
"1  c #BA311E",
"2  c #8E2C22",
"3  c #972B22",
"4  c #843426",
"5  c #9D332C",
"6  c #9C392D",
"7  c #973428",
"8  c #923C32",
"9  c #AB2B21",
"0  c #A42720",
"q  c #A3362C",
"w  c #A6392C",
"e  c #AA3E2A",
"r  c #C6361C",
"t  c #DD3E17",
"y  c #D53C19",
"u  c #95453D",
"i  c #9B5F3C",
"p  c #B34229",
"a  c #BC4627",
"s  c #AB443C",
"d  c #A5443A",
"f  c #B04435",
"g  c #8A7C2B",
"h  c #877D29",
"j  c #8B7936",
"k  c #87773F",
"l  c #947C3B",
"z  c #9C7D3B",
"x  c #E54216",
"c  c #C54926",
"v  c #CC4B24",
"b  c #CC4929",
"n  c #8E4E4A",
"m  c #984C45",
"M  c #9B524B",
"N  c #9E5C40",
"B  c #A44640",
"V  c #AC554C",
"C  c #BC5A49",
"Z  c #B2564C",
"A  c #B45D58",
"S  c #867542",
"D  c #977E45",
"F  c #A96340",
"G  c #AE6455",
"H  c #B9615A",
"J  c #B1775E",
"K  c #B76C42",
"L  c #A66C64",
"P  c #BB716D",
"I  c #BD7773",
"U  c #AB797D",
"Y  c #C95F47",
"T  c #C45D48",
"R  c #CD6146",
"E  c #D36344",
"W  c #D5694F",
"Q  c #C66755",
"!  c #DD6E51",
"~  c #D46A53",
"^  c #C17F7C",
"/  c #C57662",
"(  c #9E8537",
")  c #9E8C34",
"_  c #898129",
"`  c #A08436",
"'  c #A79439",
"]  c #92844C",
"[  c #A1894E",
"{  c #A0864C",
"}  c #A78B56",
"|  c #AC9353",
" . c #B09652",
".. c #BA817E",
"X. c #B09772",
"o. c #A89069",
"O. c #C2817E",
"+. c #718CBA",
"@. c #5195D7",
"#. c #6F95C4",
"$. c #719DD9",
"%. c #7AA2D4",
"&. c #499EF1",
"*. c #7DAAE8",
"=. c #7AB5F3",
"-. c #68A8EF",
";. c #9D9B93",
":. c #A99D90",
">. c #BE9C93",
",. c #B39A97",
"<. c #AC9A86",
"1. c #A1A09E",
"2. c #8188AF",
"3. c #9895A9",
"4. c #8A9DB0",
"5. c #969ABC",
"6. c #898BB3",
"7. c #9FAAAB",
"8. c #B7ADAB",
"9. c #BEBEBF",
"0. c #BAB7B8",
"q. c #B1AEAA",
"w. c #D29284",
"e. c #C39491",
"r. c #CB9A94",
"t. c #CC9B96",
"y. c #CB8881",
"u. c #C2A29A",
"i. c #D2A29D",
"p. c #CDB59B",
"a. c #C7ACA6",
"s. c #CDB1AD",
"d. c #D5BFA7",
"f. c #C7BAB4",
"g. c #D0B3B1",
"h. c #D2ABA9",
"j. c #CEC2B3",
"k. c #D5C7BB",
"l. c #8AA5D7",
"z. c #8FA4CD",
"x. c #A1BADB",
"c. c #85B7F3",
"v. c #98B3E1",
"b. c #C1BFC3",
"n. c #8FC4F7",
"m. c #9BC6F5",
"M. c #ADC4E7",
"N. c #B9CAE8",
"B. c #A6C8F3",
"V. c #AFD2F7",
"C. c #A5D2FA",
"Z. c #B2D7F9",
"A. c #BDDAF8",
"S. c gray77",
"D. c #CCCCCC",
"F. c #CAC7C8",
"G. c #D5C4C2",
"H. c #DAC7C2",
"J. c #D2CECB",
"K. c #D9CDCA",
"L. c #D6D1CD",
"P. c #DDD5CD",
"I. c #DDD1C5",
"U. c #D1CFD1",
"Y. c #CCD0D8",
"T. c #D4D4D5",
"R. c #DBD6D3",
"E. c #DEDAD5",
"W. c #DCDCDC",
"Q. c #C5C9D0",
"!. c #E5CECB",
"~. c #E8CFC9",
"^. c #E4D4CD",
"/. c #EBD1CB",
"(. c #E1D8CE",
"). c #E4D3D2",
"_. c #E3DEDA",
"`. c #E1D9D2",
"'. c #E6E1DD",
"]. c #C4D3EC",
"[. c #DCDDE1",
"{. c #D2D7E0",
"}. c #CDDCF2",
"|. c #C5DDF7",
" X c #D0DCF0",
".X c #DDE1ED",
"XX c #DEE6F2",
"oX c #E2E2E2",
"OX c #E0E4EF",
"+X c #EBECEC",
"@X c #E3E7F0",
"#X c #F5F5F5",
"$X c #FAFAFA",
"%X c None",
/* pixels */
"%X%X%X%X%X8 6 6 w d e p p a c c v v v v c %X%X%X%X%X%X%X%X%X%X%X",
"%X%X%X%X%X3 0 9 9 < 1 r r y t t x x x x t b / %X%X%X%X%X%X%X%X%X",
"%X%X%X%X%X3 s A H H Q Q Q ~ ~ ! ! ! ! ! W Q O.i.%X%X%X%X%X%X%X%X",
"%X%X%X%X%X5 U G.G.G.G.H.k.H.H.H.H.H.H.H.k.j.P.'.R.0.%X%X%X%X%X%X",
"%X%X%X%X%X5 e.W.oXoXoXoXoXoXoXoXoXoX.XoXW.J.T.T.U.a.L %X%X%X%X%X",
"%X%X%X%X%Xq e._.oXoXoXoXoXoXoXoXoXoXoXoXoXT.S.9.9.,.u %X%X%X%X%X",
"%X%X%X%X%X5 >.W.oXoXoXoXoXoXoXoXoX'.'.'.oXW.W.T.W.a.s : %X%X%X%X",
"%X%X%X%X%X5 e.W.oXoXoXoXoXoX[.W._..X.X'.oXW.oXoX.Xs.f 2 %X%X%X%X",
"%X%X%X%X%X5 e._.oXoXoXoX[.W.T.L.U.T.W.W.oXoXoXoXoXs.f 2 %X%X%X%X",
"%X%X%X%X%X5 e.oXoX[.W.W.T.T.W.[.[.W.T.T.T.W.oXoXoXg.s 2 %X%X%X%X",
"%X%X%X%X%X5 e._.R.J.J.R.E.'._.'._._._.R.R.K.J.J.E.s.s 2 %X%X%X%X",
"%X%X%X%X%X5 e.(.E._._._.'.'.W.E.E.T.U.U.J.F.b.0.f.u.s 2 %X%X%X%X",
"%X%X%X%X%X5 e.`.[..XOXOX@XXX.X|.].].M.M.N.M.v.z.q.>.s 2 %X%X%X%X",
"%X%X%X%X%X5 e.P.[. X X}.}.|.Z.V.Z.V.B.m.B.m.*.$.7.>.s 2 %X%X%X%X",
"%X%X%X%X%X5 r.P.{.}.|.A.Z.C.n.n.c.=.=.c.=.-.&.@.1.e.s 2 %X%X%X%X",
"%X%X%X%X%Xq r.I.Y.}.}.N.x.l.#.+.2.6.5.z.l.-.&.@.;.>.s 2 %X%X%X%X",
"%X%X%X%X%Xq w.k.Y.N.5.= * # # # $ n G G U 3.*.$.:.>.s 2 %X%X%X%X",
"%X%X%X%X%X%X%X%X%X%X%X%X%X%X%X%X%X%X%X%X%X%X%X%X%X%X%X%X%X%X%X%X",
"%X%X%X%X%Xq t.j.o.] S S S S ] z l l l j j ( S & o.u.V 7 %X%X%X%X",
"%X%X%X%X%Xq t.p.{ ( ( ( ( ) ' ' ) j h _ _ _ @ @ } a.I m %X%X%X%X",
"%X%X%X%X%Xq t.a.[ | | | | | | | | [ [ [ [ [ { ] X.s.I M %X%X%X%X",
"%X%X%X%X%Xq i.`.j.j.j.j.j.j.j.j.j.j.j.j.j.j.j.j.k.b.y.M %X%X%X%X",
"%X%X%X%X%Xq i.#X#X#X#X#X#X#X#X#X#X#X#X#X#X#X#X#X#X).y.M %X%X%X%X",
"%X%X%X%X%Xq i.#X$X$X$X$X$X$X$X$X$X$X$X$X$X$X$X$X$X).^ M %X%X%X%X",
"%X%X%X%X%Xw i.#X$X$X$X$X#X#X#X#X#X#X#X#X$X$X$X$X$X).I M %X%X%X%X",
"%X%X%X%X%Xq i.#X$X$X$X#XW.T.W.W.oXoXW.W.#X$X$X$X$X).P u %X%X%X%X",
"%X%X%X%X%Xw i.#X$X$X$X#XD.S.S.9.D.F.U.W.+X$X$X$X$X).I m %X%X%X%X",
"%X%X%X%X%Xw i.#X$X$X$X#XT.W.W.D.S.F.R.U.+X$X$X$X#X).^ m %X%X%X%X",
"%X%X%X%X%Xw i.#X$X$X$X#X+X#X+X+XoXoXoX[.+X$X$X$X$X).O.m %X%X%X%X",
"%X%X%X%X%Xw y.~././././.~././././././.!.~.!.^.!.).h.H m %X%X%X%X",
"%X%X%X%X%X3 f C C Y Y R E E E E E R Y T C C Z V V B 5 4 %X%X%X%X",
"%X%X%X%X%X%Xo ; o : : > , , , , > : : ; ; o X X . . . %X%X%X%X%X"
};
